<svg width="50" height="37" viewBox="0 0 50 37" fill="none" xmlns="http://www.w3.org/2000/svg">
<path d="M9.43243 24.3514H1V8.78378H15.2703H22.0811V18.1892M9.43243 24.3514V18.5135C9.43243 17.8649 9.82162 16.5676 11.3784 16.5676C12.9351 16.5676 13.3243 17.8649 13.3243 18.5135V24.3514M9.43243 24.3514V28.2432M13.3243 24.3514H19.8108M13.3243 24.3514V28.2432M49 31.8108V35.7027H1V31.8108H6.51351M49 31.8108H36.3513M49 31.8108V27.9189M19.8108 24.3514H22.0811V18.1892M19.8108 24.3514V31.8108M19.8108 31.8108H36.3513M19.8108 31.8108H16.8919M36.3513 31.8108V27.9189M49 27.9189H36.3513M49 27.9189V24.027M36.3513 27.9189V24.027M49 24.027V20.1351H42.1892M49 24.027H36.3513M36.3513 24.027V20.1351H42.1892M42.1892 20.1351C42.1892 19.1622 40.6324 17.0865 34.4054 16.5676L31.8108 23.0541L28.5676 16.5676C26.6216 17 22.6 17.9297 22.0811 18.1892M25.973 8.13513C28.5676 8.13513 29 8.13513 28.8919 8.13513C29.7568 8.13513 31.8757 7.74594 33.4324 6.18919L37 8.45946M37 8.45946V11.3784C37 12.8919 35.8973 15.9189 31.4865 15.9189C27.0757 15.9189 25.973 12.8919 25.973 11.3784V6.18919C25.973 4.45946 27.0757 1 31.4865 1C35.8973 1 37 4.45946 37 6.18919V8.45946ZM9.43243 28.2432H13.3243M9.43243 28.2432C8.45946 28.1351 6.51351 28.6973 6.51351 31.8108M13.3243 28.2432C14.5135 28.027 16.8919 28.4378 16.8919 31.8108M16.8919 31.8108H6.51351" stroke="black" stroke-opacity="0.38" stroke-width="1.5" stroke-linecap="round"/>
</svg>
