<svg width="39" height="51" viewBox="0 0 39 51" fill="none" xmlns="http://www.w3.org/2000/svg">
<path d="M20.3067 50H8.2059M20.3067 50H32.4076M20.3067 50V39.1092M20.3067 2L11.8361 8.85714L11.3379 14.5042M20.3067 2L28.7773 8.85714L29.2044 13.6975M20.3067 2V8.45378M8.2059 50H1.34875L4.97901 27.4118L10.5772 23.1248M8.2059 50L8.50746 46.5823M10.5772 23.1248L9.93907 30.3574M10.5772 23.1248L10.6261 22.5714M32.4076 50H37.6513L37.2479 44.7563L34.8277 18.5378L29.2044 13.6975M32.4076 50L29.2044 13.6975M8.50746 46.5823L20.3067 39.1092M8.50746 46.5823L9.23803 38.3025M20.3067 39.1092V31.4454M9.23803 38.3025L20.3067 31.4454M9.23803 38.3025L9.93907 30.3574M20.3067 31.4454V23.7815M9.93907 30.3574L20.3067 23.7815M20.3067 23.7815V16.521M10.6261 22.5714L20.3067 16.521M10.6261 22.5714L11.3379 14.5042M20.3067 16.521V8.45378M11.3379 14.5042L20.3067 8.45378" stroke="black" stroke-opacity="0.38" stroke-width="1.875"/>
</svg>
