<svg width="48" height="39" viewBox="0 0 48 39" fill="none" xmlns="http://www.w3.org/2000/svg">
<path d="M14.0625 37.375H33.5625M14.0625 37.375H4.3125C3.3125 37.375 1.3125 36.85 1.3125 34.75C1.3125 32.65 1.3125 28.375 1.3125 26.5C1.3125 24.875 2.1375 21.625 5.4375 21.625C8.7375 21.625 12.5625 21.625 14.0625 21.625M14.0625 37.375V21.625M33.5625 21.625C33.9375 21.625 35.8875 21.625 40.6875 21.625C45.4875 21.625 46.6875 25.375 46.6875 27.25C46.6875 28.5 46.6875 31.675 46.6875 34.375C46.6875 37.075 44.4375 37.5 43.3125 37.375H33.5625M33.5625 21.625V37.375M33.5625 21.625C33.5625 18.625 30.0625 17.875 28.3125 17.875C26.8125 17.875 22.8375 17.875 18.9375 17.875C15.0375 17.875 14.0625 20.375 14.0625 21.625" stroke="#08267C" stroke-width="2" stroke-linecap="round"/>
<circle cx="23.8125" cy="7.75" r="6.75" stroke="#08267C" stroke-width="2"/>
<circle cx="38.4375" cy="13.375" r="4.875" stroke="#08267C" stroke-width="2"/>
<circle cx="9.1875" cy="13.375" r="4.875" stroke="#08267C" stroke-width="2"/>
</svg>
