<svg width="24" height="25" viewBox="0 0 24 25" fill="none" xmlns="http://www.w3.org/2000/svg">
<path d="M17 15.2632V12.2577C17 12.0782 17 11.9885 16.9727 11.9092C16.9485 11.8392 16.9091 11.7754 16.8572 11.7224C16.7986 11.6625 16.7183 11.6224 16.5578 11.5421L12 9.26325M4 10.2632V17.0699C4 17.4418 4 17.6277 4.05802 17.7905C4.10931 17.9345 4.1929 18.0648 4.30238 18.1714C4.42622 18.2919 4.59527 18.3694 4.93335 18.5244L11.3334 21.4577C11.5786 21.5701 11.7012 21.6263 11.8289 21.6485C11.9421 21.6681 12.0579 21.6681 12.1711 21.6485C12.2988 21.6263 12.4214 21.5701 12.6666 21.4577L19.0666 18.5244C19.4047 18.3694 19.5738 18.2919 19.6976 18.1714C19.8071 18.0648 19.8907 17.9345 19.942 17.7905C20 17.6277 20 17.4418 20 17.0699V10.2632M2 9.26325L11.6422 4.44213C11.7734 4.37654 11.839 4.34375 11.9078 4.33084C11.9687 4.31941 12.0313 4.31941 12.0922 4.33084C12.161 4.34375 12.2266 4.37654 12.3578 4.44213L22 9.26325L12.3578 14.0844C12.2266 14.15 12.161 14.1828 12.0922 14.1957C12.0313 14.2071 11.9687 14.2071 11.9078 14.1957C11.839 14.1828 11.7734 14.15 11.6422 14.0844L2 9.26325Z" stroke="#0E45E1" stroke-width="2" stroke-linecap="round" stroke-linejoin="round"/>
</svg>
