<svg width="24" height="24" viewBox="0 0 24 24" fill="none" xmlns="http://www.w3.org/2000/svg">
<path d="M8.29794 8.76607C8.9871 10.2014 9.92656 11.5467 11.1163 12.7365C12.3061 13.9263 13.6514 14.8657 15.0868 15.5549C15.2102 15.6142 15.272 15.6438 15.3501 15.6666C15.6277 15.7475 15.9686 15.6894 16.2037 15.521C16.2698 15.4737 16.3264 15.4171 16.4396 15.3039C16.7858 14.9577 16.9589 14.7846 17.1329 14.6715C17.7893 14.2447 18.6355 14.2447 19.2918 14.6715C19.4659 14.7846 19.639 14.9577 19.9851 15.3039L20.1781 15.4968C20.7043 16.0231 20.9674 16.2862 21.1104 16.5688C21.3946 17.1307 21.3946 17.7944 21.1104 18.3564C20.9674 18.639 20.7043 18.9021 20.1781 19.4283L20.022 19.5844C19.4976 20.1088 19.2354 20.371 18.8789 20.5713C18.4833 20.7935 17.8689 20.9533 17.4152 20.9519C17.0063 20.9507 16.7269 20.8714 16.168 20.7128C13.1644 19.8602 10.3301 18.2517 7.96562 15.8872C5.60111 13.5227 3.99259 10.6885 3.14008 7.68488C2.98145 7.12598 2.90213 6.84653 2.90092 6.43764C2.89957 5.98392 3.05934 5.36953 3.28156 4.97395C3.48182 4.61745 3.74403 4.35525 4.26845 3.83083L4.42453 3.67474C4.95075 3.14852 5.21386 2.88541 5.49644 2.74248C6.05843 2.45823 6.7221 2.45823 7.28409 2.74248C7.56666 2.88541 7.82977 3.14852 8.356 3.67474L8.54895 3.86769C8.89512 4.21387 9.06821 4.38695 9.18137 4.561C9.60813 5.21738 9.60813 6.06356 9.18137 6.71994C9.06821 6.89399 8.89512 7.06707 8.54895 7.41325C8.43576 7.52643 8.37917 7.58303 8.3318 7.64918C8.16346 7.88428 8.10533 8.22516 8.18625 8.50276C8.20902 8.58087 8.23866 8.6426 8.29794 8.76607Z" stroke="#0E45E1" stroke-width="2" stroke-linecap="round" stroke-linejoin="round"/>
</svg>
